<?xml version="1.0" standalone="no"?>
<!DOCTYPE svg PUBLIC "-//W3C//DTD SVG 20010904//EN"
 "http://www.w3.org/TR/2001/REC-SVG-20010904/DTD/svg10.dtd">
<svg version="1.0" xmlns="http://www.w3.org/2000/svg"
 width="500.000000pt" height="500.000000pt" viewBox="0 0 500.000000 500.000000"
 preserveAspectRatio="xMidYMid meet">

<g transform="translate(0.000000,500.000000) scale(0.100000,-0.100000)"
fill="#000000" stroke="none">
<path d="M2335 4994 c-234 -25 -430 -64 -613 -124 -1022 -333 -1716 -1291
-1716 -2370 -1 -1076 690 -2032 1711 -2366 224 -73 335 -95 608 -120 149 -13
202 -14 310 -4 203 17 291 30 410 56 739 166 1360 654 1690 1329 146 299 215
552 251 915 19 188 13 349 -21 575 -74 494 -311 971 -667 1347 -176 187 -425
371 -656 487 -355 178 -713 268 -1097 276 -93 2 -188 1 -210 -1z m522 -430
c-3 -3 -12 -4 -19 -1 -8 3 -5 6 6 6 11 1 17 -2 13 -5z m-196 -1592 c289 -101
420 -431 281 -707 -32 -64 -143 -175 -208 -208 -52 -26 -179 -57 -236 -57 -56
0 -163 27 -225 56 -108 51 -210 174 -252 303 -36 111 -19 270 41 383 60 113
206 221 333 247 70 14 199 6 266 -17z m-940 -699 c79 -238 225 -406 442 -508
331 -156 726 -64 962 222 61 74 127 195 144 263 7 25 17 56 24 69 l12 24 640
-7 c352 -4 641 -9 643 -11 7 -7 -29 -220 -55 -325 -93 -376 -289 -717 -570
-991 -245 -239 -493 -391 -828 -504 -197 -67 -266 -82 -461 -102 -161 -16
-181 -16 -360 0 -301 27 -520 87 -763 208 -209 104 -365 214 -535 379 -360
349 -568 766 -636 1275 -5 33 -6 63 -4 67 3 5 302 8 664 8 l658 0 23 -67z"/>
</g>
</svg>
